<?xml version="1.0" standalone="no"?>
<!DOCTYPE svg PUBLIC "-//W3C//DTD SVG 20010904//EN"
 "http://www.w3.org/TR/2001/REC-SVG-20010904/DTD/svg10.dtd">
<svg version="1.0" xmlns="http://www.w3.org/2000/svg"
 width="261.000000pt" height="423.000000pt" viewBox="0 0 261.000000 423.000000"
 preserveAspectRatio="xMidYMid meet">

<g transform="translate(0.000000,423.000000) scale(0.100000,-0.100000)"
fill="#000000" stroke="none">
<path d="M583 4208 c-29 -36 -43 -116 -43 -234 0 -118 1 -124 27 -154 26 -31
26 -33 7 -43 -39 -22 -121 -108 -168 -176 -82 -121 -131 -265 -145 -429 -8
-91 0 -236 15 -286 6 -17 2 -18 -33 -13 -37 6 -41 4 -105 -59 -62 -60 -138
-181 -138 -219 0 -16 77 -49 151 -65 75 -17 182 -10 207 13 19 18 21 16 67
-65 121 -211 376 -396 589 -429 71 -11 204 -7 240 7 18 7 19 4 12 -47 -11 -79
-15 -81 -94 -49 -37 15 -91 39 -120 54 -51 26 -54 26 -68 9 -29 -38 -74 -173
-76 -230 -3 -52 2 -69 44 -155 88 -183 158 -260 263 -290 22 -6 43 -14 48 -18
9 -7 -43 -240 -78 -352 -46 -147 -84 -313 -95 -423 -21 -196 -53 -293 -114
-344 -26 -22 -19 -29 42 -41 97 -19 184 -51 257 -95 136 -82 219 -94 313 -46
l41 21 88 -21 c71 -17 112 -20 208 -17 112 3 124 6 187 37 108 54 191 152 238
281 13 36 31 57 100 110 47 37 99 86 115 111 27 40 30 53 33 142 4 89 1 103
-22 150 -14 29 -42 72 -63 97 -36 42 -38 46 -34 108 2 49 -2 78 -20 122 l-22
57 -96 28 c-106 32 -181 66 -226 103 -16 13 -63 68 -103 121 -52 69 -71 102
-67 116 36 124 38 144 26 217 -21 117 -41 179 -73 227 -41 62 -139 161 -158
161 -8 0 -45 -38 -83 -85 -37 -47 -72 -85 -77 -85 -5 0 -25 14 -45 31 -30 26
-35 38 -35 73 0 37 6 47 51 91 107 106 174 237 219 430 19 85 21 114 16 214
-4 64 -9 128 -12 144 l-6 27 73 0 72 0 79 80 c98 100 97 104 -42 154 -116 41
-146 44 -200 16 -22 -11 -41 -20 -44 -20 -2 0 -11 20 -19 44 -8 24 -41 88 -73
142 -43 76 -81 123 -158 200 -90 89 -113 106 -206 152 -119 58 -202 82 -284
82 -50 0 -56 2 -56 20 0 31 -44 94 -128 182 -108 113 -172 150 -199 116z m73
-24 c58 -39 140 -121 191 -192 40 -55 46 -70 49 -125 4 -67 26 -152 46 -180 8
-10 52 -28 105 -42 101 -27 168 -57 253 -115 107 -73 155 -124 199 -215 47
-98 69 -113 130 -94 20 6 50 19 66 28 17 9 51 25 77 35 l47 17 108 -36 c59
-20 112 -40 117 -45 12 -12 -35 -70 -101 -124 -53 -44 -58 -46 -120 -46 -81 0
-136 -16 -168 -47 -25 -26 -25 -23 -45 -243 -14 -152 -45 -313 -81 -428 -16
-51 -34 -127 -40 -168 -11 -72 -11 -76 11 -99 12 -13 35 -30 51 -37 l28 -14
-35 -52 c-19 -29 -37 -67 -39 -84 -5 -31 -4 -31 15 10 19 41 125 188 189 262
l31 35 71 -73 c84 -87 111 -141 135 -269 20 -107 15 -155 -30 -256 l-26 -58
-30 21 c-17 12 -37 20 -44 17 -19 -8 -45 -122 -51 -224 -5 -105 -16 -193 -22
-193 -3 0 -55 35 -116 77 -62 43 -145 100 -185 128 -79 54 -75 45 -57 131 6
26 5 27 -6 9 -7 -11 -13 -46 -15 -78 -1 -32 -6 -63 -10 -67 -14 -14 -153 18
-199 45 -22 13 -52 36 -67 52 -37 38 -123 184 -143 241 -9 26 -21 55 -26 65
-5 10 -7 22 -4 27 3 4 10 32 15 62 6 29 24 81 41 115 l30 63 72 -37 c40 -20
104 -49 142 -64 65 -26 67 -28 26 -22 -48 7 -55 1 -71 -58 -8 -29 -6 -50 11
-105 25 -82 76 -171 101 -177 16 -5 17 -9 7 -30 -12 -27 -47 -41 -73 -31 -9 3
-16 3 -16 0 0 -4 21 -16 46 -27 45 -20 74 -20 74 1 0 6 -4 8 -10 5 -5 -3 -8 0
-6 7 3 7 7 25 10 41 4 18 13 27 26 27 23 0 56 54 96 158 32 85 30 93 -39 134
-25 14 -54 35 -65 46 -11 11 -34 23 -51 27 -28 6 -30 9 -19 28 6 12 17 46 24
75 l12 53 -38 35 c-60 55 -95 80 -245 169 -195 116 -336 227 -415 328 -36 47
-77 77 -104 77 -8 0 -48 -29 -87 -64 -70 -62 -75 -65 -133 -68 -70 -5 -151 6
-218 29 l-47 16 36 71 c20 40 61 97 94 131 l59 62 77 -4 c61 -3 85 0 113 14
38 20 38 18 55 213 12 144 92 321 206 454 45 53 49 61 44 98 -6 48 -44 120
-88 169 -22 24 -32 45 -33 69 -8 247 1 340 31 340 7 0 30 -12 51 -26z m454
-341 c146 -38 323 -167 440 -321 60 -78 147 -249 134 -262 -5 -5 -31 -15 -57
-22 -61 -16 -76 -7 -99 61 -27 76 -82 145 -173 213 -95 72 -194 121 -290 144
-38 9 -77 20 -85 23 -22 10 -57 89 -65 145 l-7 48 74 -7 c40 -4 98 -14 128
-22z m-464 -124 c16 -32 18 -43 5 -35 -10 7 -91 -78 -91 -95 0 -9 3 -9 14 0
10 9 20 9 39 0 33 -15 57 -6 58 23 1 15 3 17 6 7 2 -9 -24 -53 -61 -102 -123
-163 -167 -266 -185 -431 -7 -55 -13 -102 -16 -104 -2 -2 -18 6 -34 18 l-31
21 -1 -28 c-1 -34 2 -77 6 -81 8 -9 45 11 45 24 0 8 5 14 10 14 20 0 10 -49
-12 -61 -30 -16 -97 -28 -103 -19 -2 4 -9 54 -14 112 -28 297 80 598 270 748
56 44 67 43 95 -11z m1116 -750 c25 -208 -19 -428 -118 -591 l-38 -63 -9 35
c-15 54 -15 137 -2 195 10 43 25 166 38 318 1 15 5 27 10 27 4 0 18 12 32 27
19 23 26 26 36 16 21 -21 39 -15 39 11 0 17 -9 28 -30 38 -36 15 -38 26 -7 38
35 14 42 7 49 -51z m-1254 -316 c-10 -2 -18 -12 -18 -22 0 -22 29 -63 40 -56
5 3 39 -19 75 -50 36 -30 71 -55 79 -55 7 0 45 -26 84 -57 39 -32 118 -87 176
-123 62 -39 98 -66 88 -68 -9 -1 -41 -10 -70 -18 l-52 -16 6 -49 7 -50 -29 11
c-188 71 -340 203 -457 396 -20 34 -37 68 -37 75 0 20 82 89 105 88 17 -1 17
-2 3 -6z m747 -564 c9 -14 -45 -24 -135 -24 -108 0 -157 10 -171 36 -10 20 -9
21 40 14 36 -5 56 -3 66 5 10 9 34 11 70 7 30 -3 55 -2 55 3 0 10 66 -26 75
-41z m125 -254 c63 -32 70 -38 64 -58 -13 -41 -99 -176 -116 -182 -40 -14 -90
44 -123 143 -18 55 -15 103 7 130 18 22 86 8 168 -33z m727 -511 c45 -54 53
-74 28 -74 -65 0 -175 142 -175 226 l0 37 52 -69 c28 -38 71 -92 95 -120z
m270 -126 c7 -14 19 -56 27 -94 l15 -69 -47 54 c-35 41 -75 118 -82 158 0 1
17 -4 38 -11 22 -7 42 -23 49 -38z m-11 -160 c3 -16 4 -31 2 -33 -5 -5 -88
117 -88 130 0 20 80 -70 86 -97z m108 -170 c0 -73 -4 -103 -20 -138 -23 -51
-68 -98 -110 -115 -26 -10 -31 -9 -51 16 -30 35 -29 40 10 64 18 11 43 42 57
70 22 45 25 62 25 167 l0 118 45 -45 44 -45 0 -92z m-936 -108 c-2 -124 -8
-233 -12 -243 -14 -30 -33 -2 -40 61 -8 69 -25 132 -42 152 -16 20 -9 69 26
186 31 103 49 129 63 91 5 -12 7 -123 5 -247z m572 99 c30 -49 77 -116 103
-149 l50 -60 -18 -45 c-9 -25 -20 -45 -23 -45 -12 0 -150 282 -166 338 -8 28
-12 52 -8 52 4 -1 32 -41 62 -91z m429 7 c29 -45 43 -78 48 -114 5 -49 -3
-129 -13 -119 -3 3 -15 41 -26 84 -10 43 -26 88 -34 100 -14 23 -32 113 -22
113 3 0 24 -29 47 -64z m-209 -307 c13 -23 -27 -102 -90 -178 -41 -49 -67 -70
-117 -94 -63 -29 -73 -30 -257 -38 -105 -5 -203 -11 -218 -13 -27 -5 -28 -4
-28 42 l0 47 123 1 c99 0 135 5 192 23 173 56 256 115 307 218 l32 65 23 -28
c13 -16 28 -36 33 -45z m30 -48 c13 -26 -12 -146 -46 -220 -23 -50 -26 -53
-41 -39 -22 23 -19 101 7 147 11 20 30 57 43 83 12 26 23 48 24 48 1 0 7 -9
13 -19z m-1255 -81 c3 -5 1 -10 -4 -10 -6 0 -11 5 -11 10 0 6 2 10 4 10 3 0 8
-4 11 -10z m215 -69 c41 -24 94 -55 117 -68 25 -14 68 -27 105 -31 62 -7 63
-8 66 -39 3 -31 2 -32 -43 -39 -71 -10 -119 0 -272 61 -97 38 -155 55 -186 55
l-44 0 8 46 c5 25 12 50 15 56 4 6 37 9 83 6 69 -3 83 -7 151 -47z m-220 -76
c0 -3 -5 -14 -12 -25 -14 -22 4 -47 59 -81 19 -12 33 -23 31 -24 -3 -4 -181
35 -187 41 -8 7 75 94 91 94 10 0 18 -2 18 -5z"/>
<path d="M646 4052 c-9 -59 -7 -171 5 -193 11 -22 155 -139 170 -139 5 0 9 47
9 107 l0 107 -68 67 c-37 36 -77 71 -89 77 -19 10 -21 8 -27 -26z m102 -55
l72 -72 0 -62 c0 -64 -6 -93 -21 -93 -4 0 -22 21 -40 46 -17 26 -46 52 -64 60
-18 7 -35 20 -39 29 -7 19 4 165 13 165 4 0 39 -33 79 -73z"/>
<path d="M756 3540 c-28 -34 -36 -61 -11 -40 12 10 13 7 5 -19 -8 -28 -7 -30
9 -21 10 5 20 7 23 5 3 -3 11 13 18 35 12 35 11 43 -2 56 -14 14 -18 12 -42
-16z"/>
<path d="M986 3501 c-4 -5 -30 -17 -60 -25 -92 -27 -183 -127 -224 -247 -11
-30 -27 -97 -37 -149 -18 -94 -17 -98 2 -195 27 -135 54 -187 137 -271 108
-108 204 -146 371 -147 105 -1 160 19 230 84 115 106 147 368 70 573 -14 36
-25 76 -25 87 0 57 -90 159 -198 222 -79 46 -252 91 -266 68z m200 -142 c135
-56 253 -193 289 -337 9 -35 17 -109 18 -165 2 -90 -1 -107 -22 -149 -14 -27
-46 -72 -73 -102 -70 -79 -126 -98 -283 -99 -115 0 -122 1 -182 31 -166 85
-275 282 -258 467 17 191 49 274 122 320 83 53 117 63 231 64 72 1 94 -3 158
-30z"/>
<path d="M1779 3209 c-30 -17 -65 -42 -79 -56 -20 -21 -15 -19 25 9 94 66 101
68 174 44 l64 -22 -52 -38 c-47 -35 -53 -37 -69 -23 -15 13 -27 14 -89 4 -40
-6 -73 -15 -73 -19 0 -4 41 -8 91 -8 89 0 92 1 145 38 29 20 54 40 54 44 0 10
-28 24 -86 41 -51 15 -52 15 -105 -14z"/>
<path d="M548 3075 c-13 -38 -20 -113 -11 -118 17 -11 28 28 23 83 -4 37 -7
49 -12 35z"/>
<path d="M270 2787 c7 -7 183 -37 188 -32 2 2 -13 8 -34 13 -47 12 -161 26
-154 19z"/>
<path d="M196 2720 c-25 -27 -46 -54 -46 -60 0 -16 61 -39 126 -46 46 -6 55
-5 49 6 -5 9 -4 11 4 6 11 -7 136 92 127 101 -2 2 -30 -13 -62 -33 -56 -36
-64 -38 -146 -40 -49 -1 -88 1 -88 5 0 3 21 30 46 59 58 66 52 68 -10 2z"/>
<path d="M1094 2377 c22 -18 85 -73 140 -124 56 -50 103 -87 104 -82 8 20 -9
60 -39 94 -40 45 -152 118 -204 133 l-40 11 39 -32z"/>
<path d="M1774 2051 c31 -33 26 -43 -6 -14 -17 15 -21 15 -29 3 -5 -8 -8 -24
-7 -35 2 -16 10 -20 33 -18 77 6 122 -131 91 -277 -18 -82 -12 -90 10 -14 39
136 -13 330 -101 376 -14 8 -11 1 9 -21z"/>
<path d="M1610 1980 c-28 -35 -70 -132 -70 -160 0 -21 37 -50 112 -85 42 -20
87 -35 100 -33 20 3 23 9 26 53 6 90 -42 235 -84 254 -39 17 -50 14 -84 -29z
m75 18 c19 -9 30 -27 46 -77 20 -62 29 -164 16 -177 -3 -3 -46 11 -96 32 -81
34 -91 42 -91 64 1 33 30 97 64 138 32 37 28 35 61 20z"/>
<path d="M1397 1997 c-12 -32 -8 -53 16 -75 24 -22 51 -32 29 -10 -8 8 -8 17
-1 31 8 14 8 18 0 13 -7 -5 -11 5 -12 26 0 27 -2 29 -8 13 l-8 -20 -4 20 c-4
19 -5 19 -12 2z"/>
<path d="M1036 1878 c-3 -13 -6 -49 -6 -80 0 -49 7 -71 46 -145 25 -49 59
-101 76 -118 l32 -30 -26 35 c-37 51 -48 76 -68 144 -17 59 -17 63 1 96 23 42
24 59 3 67 -8 3 -20 16 -25 29 -11 30 -25 31 -33 2z"/>
<path d="M1504 1703 c-3 -16 -12 -54 -20 -85 -8 -31 -17 -83 -20 -116 l-7 -59
79 -60 c92 -69 152 -105 158 -95 6 11 25 108 36 188 13 99 2 131 -57 170 -47
30 -147 84 -157 84 -3 0 -8 -12 -12 -27z"/>
<path d="M1807 1659 c7 -7 15 -10 18 -7 3 3 -2 9 -12 12 -14 6 -15 5 -6 -5z"/>
<path d="M670 2340 c0 -10 89 -94 94 -89 3 2 -17 25 -45 50 -27 25 -49 42 -49
39z"/>
</g>
</svg>
